<svg xmlns="http://www.w3.org/2000/svg" version="1.1" viewBox="-5.0 -10.0 110.0 135.0">
 <path d="m51.852 53.586c0.27344 0.23828 0.30469 0.65234 0.0625 0.92969-0.23828 0.27344-0.65234 0.30469-0.92969 0.0625-2.8281-2.4609-5.7656-4.6602-8.8047-6.5859-3.0508-1.9297-6.2109-3.5898-9.4844-4.9766-0.33203-0.14062-0.49219-0.52344-0.35156-0.85938 0.14062-0.33203 0.52344-0.49219 0.85938-0.35156 3.3477 1.418 6.5703 3.1133 9.6758 5.0742 3.1133 1.9688 6.1016 4.2031 8.9688 6.7031zm30.859-7.4609-40.34 23.289c-0.26172 0.16406-0.61328 0.12109-0.82812-0.11328-4.3086-4.668-9.1758-8.6602-14.547-12.051-2.4023-1.5156-4.9062-2.9102-7.5078-4.1914 2.8672 1.8203 5.625 3.7617 8.2617 5.832 5.3359 4.1836 10.18 8.8711 14.477 14.125l46.945-19.93c-0.96484-1.1367-1.957-2.2578-2.9844-3.3672-1.1211-1.2148-2.2812-2.4141-3.4766-3.5898zm-2.6328 12.246-37.75 16.027c-0.26953 0.13672-0.60938 0.074218-0.80859-0.17188-4.3203-5.3398-9.1953-10.09-14.574-14.301-3.0312-2.375-6.2227-4.582-9.5664-6.6328 3.6562 2.9609 7.1367 6.0703 10.43 9.3398 5.332 5.2891 10.176 10.988 14.48 17.148l43.77-14.258c-1.9492-2.707-2.5898-3.4102-4.4141-5.418-0.39453-0.43359-0.85156-0.9375-1.5625-1.7266zm-31.613-14.941c-3.1055-1.9648-6.3281-3.6562-9.6758-5.0742-0.33203-0.14062-0.71875 0.015625-0.85937 0.35156-0.14063 0.33203 0.015624 0.71875 0.35156 0.85938 3.2734 1.3867 6.4375 3.0469 9.4844 4.9766 3.043 1.9258 5.9766 4.1211 8.8047 6.5859 0.27344 0.23828 0.69141 0.21094 0.92969-0.0625 0.23828-0.27344 0.21094-0.69141-0.0625-0.92969-2.8672-2.4961-5.8594-4.7344-8.9688-6.7031zm-12.09 7.2305c-3.1055-1.9648-6.3281-3.6562-9.6758-5.0742-0.33203-0.14063-0.71875 0.015624-0.85938 0.35156-0.14062 0.33203 0.015625 0.71875 0.35156 0.85938 3.2734 1.3867 6.4375 3.0469 9.4844 4.9766 3.043 1.9258 5.9766 4.1211 8.8047 6.5859 0.27344 0.23828 0.69141 0.21094 0.92969-0.0625 0.23828-0.27344 0.21094-0.69141-0.0625-0.92969-2.8672-2.4961-5.8594-4.7344-8.9688-6.7031zm22.184-22.277c3.2734 1.3867 6.4375 3.0469 9.4844 4.9766 3.043 1.9258 5.9766 4.1211 8.8047 6.5859 0.27344 0.23828 0.69141 0.21094 0.92969-0.0625 0.23828-0.27344 0.21094-0.69141-0.0625-0.92969-2.8672-2.4961-5.8594-4.7344-8.9688-6.7031-3.1055-1.9648-6.3281-3.6562-9.6758-5.0742-0.33203-0.14062-0.71875 0.015625-0.85937 0.35156-0.14063 0.33203 0.015624 0.71875 0.35156 0.85938zm2.7109 7.5c-3.1055-1.9648-6.3281-3.6562-9.6758-5.0742-0.33203-0.14062-0.71875 0.015625-0.85938 0.35156-0.14062 0.33203 0.015625 0.71875 0.35156 0.85938 3.2734 1.3867 6.4375 3.0469 9.4844 4.9766 3.043 1.9258 5.9766 4.1211 8.8047 6.5859 0.27344 0.23828 0.69141 0.21094 0.92969-0.0625 0.23828-0.27344 0.21094-0.69141-0.0625-0.92969-2.8672-2.4961-5.8594-4.7344-8.9688-6.7031zm-6.5234 3.6211c-3.1055-1.9648-6.3281-3.6562-9.6758-5.0742-0.33203-0.14063-0.71875 0.015624-0.85937 0.35156-0.14063 0.33203 0.015624 0.71875 0.35156 0.85938 3.2734 1.3867 6.4375 3.0469 9.4844 4.9766 3.043 1.9258 5.9766 4.1211 8.8047 6.5859 0.27344 0.23828 0.69141 0.21094 0.92969-0.0625s0.21094-0.69141-0.0625-0.92969c-2.8672-2.4961-5.8594-4.7344-8.9688-6.7031zm34.902 1.5664c-0.027344 0.19531-0.14453 0.36328-0.3125 0.46484l-46.66 26.941c-0.10156 0.058594-0.21094 0.085938-0.32031 0.085938-0.17188 0-0.34375-0.070312-0.46875-0.20703-8-8.6641-18.469-15.332-31.117-19.82-0.23438-0.082031-0.39844-0.29688-0.42188-0.54297-0.023437-0.24609 0.10156-0.48828 0.31641-0.60938l46.887-27.07c0.16406-0.09375 0.35938-0.11328 0.53516-0.046875 12.449 4.4961 22.426 10.938 31.391 20.277 0.13672 0.14062 0.19922 0.33594 0.17188 0.53125zm-1.6602-0.23047c-8.6133-8.8086-18.191-14.945-30.059-19.273l-45.441 26.234c12.086 4.4805 22.168 10.973 29.988 19.312l45.512-26.277z"/>
</svg>