<svg xmlns="http://www.w3.org/2000/svg" data-name="Layer 1" viewBox="0 0 100 125" x="0px" y="0px"><title>Rock</title><path d="M95.27,71.93c-1.33-5.5-2.79-11-4.12-16.46A35.19,35.19,0,0,0,85.85,43a20.36,20.36,0,0,1-2.35-5,79.24,79.24,0,0,0-5.76-12.82,13.56,13.56,0,0,0-4-4.49,23.43,23.43,0,0,1-2.33-1.73,19.19,19.19,0,0,0-13.74-5.11,24.54,24.54,0,0,0-12.86,2.74,27.23,27.23,0,0,0-9.58,8.25A76.13,76.13,0,0,1,22.35,38.67a23.5,23.5,0,0,0-6.75,8.8,47.69,47.69,0,0,0-2.76,8A87.86,87.86,0,0,1,7.62,71.36,27,27,0,0,0,5.26,82.21a9.07,9.07,0,0,0,5,8.59,24.33,24.33,0,0,0,9.38,2.68,35.8,35.8,0,0,0,11.52-1.13,46,46,0,0,1,16-1.24,26.75,26.75,0,0,0,11.52-.85,23.06,23.06,0,0,1,12.55-.18,26,26,0,0,0,6.87.63c5.36-.21,10.25-1.78,14.07-5.84a10.29,10.29,0,0,0,2.9-5A18.12,18.12,0,0,0,95.27,71.93ZM93,77.46a9.06,9.06,0,0,1-2.6,5.77c-3.73,3.89-8.46,5.06-14.79,5.1-1.58-.26-4.31-.62-7-1.18a17.83,17.83,0,0,0-8.62.33,34.5,34.5,0,0,1-13.26,1.21,47.81,47.81,0,0,0-16.62,1.42c-4.75,1.15-9.54,1.72-14.35.25-.5-.15-1-.28-1.5-.44C9,88.19,7.34,85.78,7.83,80.25A28.72,28.72,0,0,1,10.35,71a63.22,63.22,0,0,0,4.4-13.34,53.24,53.24,0,0,1,2-6.85,20.69,20.69,0,0,1,5.89-9.11,107.84,107.84,0,0,0,15.81-17,21,21,0,0,1,9.65-7,20.92,20.92,0,0,1,10-1.52c.81.11,1.63.17,2.45.25a12.27,12.27,0,0,1,6.08,2c2.3,1.65,4.61,3.3,6.78,5.11a10.78,10.78,0,0,1,2.28,3,73.15,73.15,0,0,1,5.49,12.21,22.17,22.17,0,0,0,2.54,5.44,34.27,34.27,0,0,1,5,11.85q1.65,6.6,3.42,13.19A23.54,23.54,0,0,1,93,77.46Z"/><path d="M79.25,46.91c-1.45-2.54-3-4.86-3.34-7.87-.23-2.16-1.65-3.68-3.3-5-1.14,1-.46,1.62.06,2.19a7.61,7.61,0,0,1,2,4.64,10.16,10.16,0,0,0,2.3,5.48,9.45,9.45,0,0,1,1.72,2.58c1.35,4.08,4,7.7,4.16,12.19A1.77,1.77,0,0,0,84.21,63c.51-1.48.07-2.85-.17-4.18A37.69,37.69,0,0,0,79.25,46.91Z"/><path d="M37.51,34.66c-.19.13-.54.24-.65.46-1.12,2.35-3.11,3.72-5.31,4.94a22.94,22.94,0,0,0-2.69,2,17.32,17.32,0,0,1-2.29,1.77,9.76,9.76,0,0,0-4.83,5.61c-.33.93-.74,1.83-1.16,2.88a1.65,1.65,0,0,0,2.05-1c.37-.73.61-1.54,1-2.22a10.54,10.54,0,0,1,2.15-2.8c2.71-2.07,5.56-4,8.38-5.9a10.5,10.5,0,0,0,3.78-4C38.29,35.69,38.52,35.06,37.51,34.66Z"/><path d="M67.81,25.75c-3.14-2.25-6.27-4.59-10.52-4a9.3,9.3,0,0,1-2.22-.16,15.29,15.29,0,0,0-7,.85c-.33.12-.54.58-.8.89a6.84,6.84,0,0,0,1.24.62c.25.07.56-.18.85-.22,1.46-.2,2.92-.44,4.38-.54,1.19-.07,2.38.13,3.57.06,4.58-.27,7.84,2.14,10.78,5.23.45.47.7,1.2,1.86.84A4.81,4.81,0,0,0,67.81,25.75Z"/><path d="M20.46,58.62c-.78-.12-.93.59-1,1.19a5.24,5.24,0,0,0-.08.88,7.69,7.69,0,0,1-1.48,4.59c-1.31,1.9-1.39,4.2-1.83,6.37-.06.29.22.65.43,1.22a5.23,5.23,0,0,0,1.66-3.37,9.22,9.22,0,0,1,1-3.14A10.83,10.83,0,0,0,21,60.05C21,59.47,21.31,58.74,20.46,58.62Z"/><path d="M86.06,68.72c-.08-.33-.56-.56-.85-.83a8.63,8.63,0,0,0-.71,1c-.09.17,0,.43,0,.65.13,2.07.24,4.14.4,6.2.07.92.26,1.82.39,2.73H86a5.6,5.6,0,0,0,.53-1.57,47.11,47.11,0,0,0,0-4.9A17.49,17.49,0,0,0,86.06,68.72Z"/><text x="0" y="115" fill="#000000" font-size="5px" font-weight="bold" font-family="'Helvetica Neue', Helvetica, Arial-Unicode, Arial, Sans-serif">Created by Sean Maldjian</text><text x="0" y="120" fill="#000000" font-size="5px" font-weight="bold" font-family="'Helvetica Neue', Helvetica, Arial-Unicode, Arial, Sans-serif">from the Noun Project</text></svg>